<svg width="166" height="40" viewBox="0 0 166 40" fill="none" xmlns="http://www.w3.org/2000/svg">
<path d="M12.6058 31.2545C10.3091 31.2545 8.06397 30.5735 6.15427 29.2977C4.24456 28.0218 2.75602 26.2084 1.87683 24.0867C0.99764 21.965 0.767282 19.6302 1.21488 17.3776C1.66248 15.1249 2.76793 13.0556 4.39148 11.4311C6.01503 9.80669 8.08378 8.7001 10.3362 8.25127C12.5886 7.80245 14.9235 8.03153 17.0457 8.90956C19.1679 9.78759 20.9821 11.2751 22.259 13.1841C23.5359 15.0931 24.2181 17.3379 24.2193 19.6346V31.2481L12.6058 31.2545Z" fill="black"/>
<path d="M120.782 31.2545C118.485 31.2545 116.24 30.5735 114.33 29.2977C112.42 28.0218 110.932 26.2084 110.053 24.0867C109.173 21.965 108.943 19.6302 109.391 17.3776C109.838 15.1249 110.944 13.0556 112.567 11.4311C114.191 9.80669 116.26 8.7001 118.512 8.25127C120.764 7.80245 123.099 8.03153 125.221 8.90956C127.344 9.78759 129.158 11.2751 130.435 13.1841C131.712 15.0931 132.394 17.3379 132.395 19.6346V31.2481L120.782 31.2545Z" fill="black"/>
<path d="M40.233 25.1861C40.2349 26.4119 39.8731 27.6106 39.1935 28.6308C38.5138 29.6509 37.5469 30.4465 36.4149 30.9168C35.283 31.3872 34.037 31.5113 32.8345 31.2733C31.6321 31.0353 30.5272 30.446 29.6598 29.5799C28.7924 28.7138 28.2014 27.6099 27.9615 26.4078C27.7217 25.2057 27.8439 23.9595 28.3125 22.8269C28.7811 21.6942 29.5752 20.726 30.5943 20.0448C31.6134 19.3636 32.8116 19 34.0374 19H40.233V25.1861Z" fill="black"/>
<path d="M40.2129 12.8238C40.2123 11.5983 40.5751 10.4001 41.2555 9.38081C41.9359 8.36154 42.9033 7.56694 44.0353 7.09753C45.1674 6.62811 46.4132 6.50496 47.6152 6.74366C48.8173 6.98236 49.9215 7.57219 50.7883 8.43853C51.6551 9.30487 52.2455 10.4088 52.4848 11.6107C52.7241 12.8126 52.6016 14.0585 52.1328 15.1908C51.6639 16.3231 50.8698 17.2909 49.8509 17.9718C48.832 18.6527 47.634 19.0162 46.4085 19.0162H40.2129V12.8238Z" fill="black"/>
<path d="M65.4839 31.2266C63.1901 31.2254 60.9482 30.544 59.0417 29.2685C57.1351 27.9931 55.6496 26.181 54.773 24.0613C53.8963 21.9416 53.6679 19.6096 54.1167 17.3601C54.5654 15.1106 55.6711 13.0447 57.294 11.4237C58.9168 9.80257 60.9839 8.69913 63.2339 8.25287C65.4839 7.8066 67.8157 8.03754 69.9344 8.91651C72.0531 9.79547 73.8636 11.283 75.137 13.1909C76.4103 15.0988 77.0892 17.3415 77.088 19.6353V31.2203L65.4839 31.2266Z" fill="black"/>
<path d="M148.727 8.79883C146.43 8.79883 144.184 9.48004 142.274 10.7563C140.364 12.0325 138.876 13.8465 137.997 15.9688C137.118 18.0911 136.888 20.4264 137.337 22.6793C137.785 24.9322 138.891 27.0015 140.516 28.6255C142.14 30.2496 144.21 31.3554 146.463 31.8032C148.716 32.2509 151.051 32.0205 153.173 31.141C155.295 30.2615 157.109 28.7725 158.385 26.8622C159.66 24.952 160.341 22.7063 160.34 20.4092V8.79883H148.727Z" fill="black"/>
<path d="M81.332 9.63086V19.6352C81.332 22.7153 82.5556 25.6693 84.7336 27.8472C86.9115 30.0252 89.8655 31.2488 92.9456 31.2488C96.0257 31.2488 98.9797 30.0252 101.158 27.8472C103.336 25.6693 104.559 22.7153 104.559 19.6352V9.63086H81.332Z" fill="black"/>
<path d="M79.4659 35.9969C78.8295 35.9969 78.2192 35.7441 77.7692 35.2941C77.3192 34.8441 77.0664 34.2338 77.0664 33.5974L77.0886 31.2264H79.4659C79.782 31.2179 80.0965 31.2732 80.3907 31.3889C80.6849 31.5047 80.9527 31.6786 81.1782 31.9002C81.4037 32.1218 81.5821 32.3866 81.7029 32.6788C81.8238 32.9709 81.8844 33.2844 81.8813 33.6006C81.8817 33.9158 81.82 34.228 81.6995 34.5193C81.5791 34.8106 81.4023 35.0753 81.1795 35.2982C80.9566 35.5211 80.6919 35.6979 80.4006 35.8183C80.1092 35.9387 79.797 36.0005 79.4818 36.0001L79.4659 35.9969Z" fill="black"/>
<path d="M165.141 6.39952C165.139 7.0354 164.886 7.64475 164.436 8.09439C163.987 8.54402 163.377 8.79736 162.741 8.79904H160.342V6.39952C160.341 6.0843 160.403 5.77208 160.524 5.48077C160.644 5.18946 160.821 4.92477 161.044 4.70187C161.267 4.47897 161.531 4.30224 161.823 4.1818C162.114 4.06136 162.426 3.99958 162.741 4C163.378 4 163.988 4.25281 164.438 4.7028C164.888 5.1528 165.141 5.76313 165.141 6.39952Z" fill="black"/>
</svg>
