<svg width="40" height="40" viewBox="0 0 40 40" fill="none" xmlns="http://www.w3.org/2000/svg">
<g clip-path="url(#clip0_2_4223)">
<path d="M9.09054 17.6264C7.34746 17.6264 5.64352 17.1095 4.1942 16.1411C2.74487 15.1727 1.61527 13.7963 0.948215 12.1859C0.281165 10.5755 0.106631 8.80342 0.44669 7.09383C0.786749 5.38424 1.62613 3.81388 2.85868 2.58133C4.09123 1.34878 5.66159 0.509406 7.37118 0.169347C9.08077 -0.170712 10.8528 0.00381896 12.4632 0.670869C14.0736 1.33792 15.45 2.46753 16.4184 3.91685C17.3869 5.36617 17.9037 7.07011 17.9037 8.8132V17.6264H9.09054Z" fill="#101820"/>
<path d="M38.6577 31.1706C38.6577 32.9137 38.1408 34.6176 37.1724 36.067C36.204 37.5163 34.8275 38.6459 33.2171 39.3129C31.6067 39.98 29.8347 40.1545 28.1251 39.8145C26.4155 39.4744 24.8451 38.635 23.6126 37.4025C22.38 36.1699 21.5407 34.5996 21.2006 32.89C20.8605 31.1804 21.0351 29.4084 21.7021 27.798C22.3692 26.1876 23.4988 24.8111 24.9481 23.8427C26.3974 22.8743 28.1014 22.3574 29.8445 22.3574H38.6577V31.1706Z" fill="#101820"/>
<path d="M31.2727 13.8395C31.2727 14.678 31.024 15.4978 30.5581 16.195C30.0923 16.8923 29.4301 17.4357 28.6554 17.7566C27.8806 18.0775 27.0281 18.1615 26.2057 17.9979C25.3832 17.8343 24.6277 17.4305 24.0348 16.8375C23.4418 16.2446 23.038 15.4891 22.8744 14.6666C22.7108 13.8442 22.7948 12.9917 23.1157 12.217C23.4366 11.4422 23.98 10.78 24.6773 10.3142C25.3745 9.84827 26.1943 9.59961 27.0328 9.59961H31.2727V13.8395Z" fill="#101820"/>
<path d="M31.2734 5.36248C31.2734 4.52449 31.5219 3.70531 31.9874 3.00851C32.4529 2.31171 33.1146 1.76858 33.8888 1.44779C34.6629 1.12699 35.5148 1.04294 36.3367 1.20625C37.1587 1.36956 37.9137 1.77291 38.5064 2.36529C39.0991 2.95767 39.5029 3.7125 39.6667 4.53433C39.8305 5.35616 39.7469 6.20811 39.4265 6.98244C39.1062 7.75678 38.5634 8.41875 37.8669 8.88466C37.1703 9.35056 36.3513 9.59949 35.5133 9.59996H31.2734V5.36248Z" fill="#101820"/>
<path d="M1.63477 24.0371V31.626C1.63477 33.7874 2.4934 35.8604 4.02179 37.3888C5.55018 38.9172 7.62312 39.7758 9.78459 39.7758C11.9461 39.7758 14.019 38.9172 15.5474 37.3888C17.0758 35.8604 17.9344 33.7874 17.9344 31.626V24.0371H1.63477Z" fill="#101820"/>
</g>
<defs>
<clipPath id="clip0_2_4223">
<rect width="40" height="40" fill="white"/>
</clipPath>
</defs>
</svg>
