<svg width="288" height="300" viewBox="0 0 288 300" fill="none" xmlns="http://www.w3.org/2000/svg">
<path d="M66.0915 132.253C53.0198 132.253 40.2417 128.375 29.373 121.109C18.5044 113.843 10.0333 103.515 5.03096 91.432C0.0286589 79.349 -1.2802 66.0531 1.26995 53.2259C3.8201 40.3986 10.1147 28.616 19.3578 19.368C28.6009 10.1201 40.3772 3.82214 53.1977 1.27063C66.0182 -1.28087 79.307 0.0286541 91.3836 5.03361C103.46 10.0386 113.782 18.5142 121.044 29.3886C128.307 40.263 132.183 53.0479 132.183 66.1265V132.253H66.0915Z" fill="#101820"/>
<path d="M287.82 233.874C287.82 246.952 283.943 259.737 276.681 270.611C269.419 281.486 259.097 289.961 247.02 294.966C234.944 299.971 221.655 301.281 208.834 298.729C196.014 296.178 184.238 289.88 174.994 280.632C165.751 271.384 159.457 259.601 156.907 246.774C154.357 233.947 155.665 220.651 160.668 208.568C165.67 196.485 174.141 186.157 185.01 178.891C195.878 171.625 208.657 167.747 221.728 167.747H287.82V233.874Z" fill="#101820"/>
<path d="M10.1816 180.347V237.287C10.1816 253.505 16.6207 269.058 28.0823 280.526C39.5439 291.993 55.0892 298.436 71.2984 298.436C87.5075 298.436 103.053 291.993 114.514 280.526C125.976 269.058 132.415 253.505 132.415 237.287V180.347H10.1816Z" fill="#101820"/>
</svg>
