<svg width="55" height="9" viewBox="0 0 55 9" fill="none" xmlns="http://www.w3.org/2000/svg">
<path fill-rule="evenodd" clip-rule="evenodd" d="M21.8431 0.0556641C22.5682 0.0556641 23.1763 0.202043 23.9164 0.555356V2.4221C23.2153 1.77693 22.6072 1.5069 21.803 1.5069C20.2224 1.5069 18.9793 2.7389 18.9793 4.30075C18.9793 5.94793 20.1839 7.10658 21.8815 7.10658C22.6455 7.10658 23.2424 6.85058 23.9164 6.21574V8.08348C23.1499 8.42317 22.5288 8.55741 21.803 8.55741C19.2366 8.55741 17.2425 6.70338 17.2425 4.31232C17.2425 1.94711 19.2897 0.0556641 21.8431 0.0556641V0.0556641ZM13.8748 0.10711C14.8222 0.10711 15.689 0.412341 16.4138 1.00918L15.5319 2.0962C15.0929 1.63293 14.6777 1.43749 14.1728 1.43749C13.4464 1.43749 12.9174 1.82682 12.9174 2.33915C12.9174 2.77845 13.2143 3.01099 14.2256 3.36331C16.1427 4.02334 16.7109 4.60852 16.7109 5.90083C16.7109 7.47564 15.4821 8.57185 13.7308 8.57185C12.4484 8.57185 11.5159 8.09636 10.7394 7.02338L11.8281 6.0363C12.2162 6.74276 12.8637 7.12118 13.6677 7.12118C14.4195 7.12118 14.9761 6.63281 14.9761 5.97378C14.9761 5.63211 14.8075 5.33919 14.4709 5.13209C14.3013 5.03404 13.9656 4.88783 13.3057 4.66875C11.7229 4.1323 11.1798 3.55884 11.1798 2.43819C11.1798 1.1069 12.3461 0.10711 13.8748 0.10711V0.10711ZM33.1342 0.248894H34.9751L37.2795 5.71285L39.6135 0.248894H41.4405L37.7077 8.59236H36.8008L33.1342 0.248894V0.248894ZM0.53125 0.261366H3.0051C5.73839 0.261366 7.64378 1.93374 7.64378 4.33447C7.64378 5.5316 7.06089 6.68902 6.07513 7.4571C5.24575 8.10539 4.30069 8.39618 2.99213 8.39618H0.53125V0.261366V0.261366ZM8.41925 0.261366H10.1046V8.39618H8.41925V0.261366ZM42.2026 0.261366H46.9822V1.63983H43.8868V3.44537H46.8682V4.82309H43.8868V7.01894H46.9823V8.39618H42.2026V0.261366H42.2026ZM48.0986 0.261366H50.5975C52.5413 0.261366 53.6551 1.14014 53.6551 2.66317C53.6551 3.90871 52.9565 4.72594 51.687 4.96922L54.4069 8.39618H52.3342L50.0016 5.12824H49.7819V8.39618H48.0986V0.261366V0.261366ZM49.7819 1.54268V4.00627H50.2744C51.3506 4.00627 51.921 3.56631 51.921 2.74859C51.921 1.95696 51.3505 1.54268 50.3009 1.54268H49.7819V1.54268ZM2.21543 1.63975V7.01894H2.6677C3.75677 7.01894 4.4446 6.82251 4.97416 6.37238C5.55697 5.88377 5.90758 5.10346 5.90758 4.32274C5.90758 3.54333 5.55697 2.78633 4.97416 2.29763C4.41744 1.82338 3.75677 1.63975 2.6677 1.63975H2.21543Z" fill="#4D4D4D"/>
<path fill-rule="evenodd" clip-rule="evenodd" d="M29.0614 0C31.6002 0 33.6581 1.93478 33.6581 4.32486V4.32756C33.6581 6.71772 31.6002 8.65513 29.0615 8.65513C26.5229 8.65513 24.4648 6.71764 24.4648 4.32756V4.32486C24.4648 1.93469 26.5228 0 29.0614 0Z" fill="#F47216"/>
</svg>
