<svg width="96" height="51" viewBox="0 0 96 51" fill="none" xmlns="http://www.w3.org/2000/svg">
<g clip-path="url(#clip0_2_6843)">
<path d="M70.429 0L25.4929 0C11.4503 0 -0.0390625 11.3684 -0.0390625 25.2632C-0.0390625 39.1579 11.4503 50.5263 25.4929 50.5263L70.429 50.5263C84.4716 50.5263 95.9609 39.1579 95.9609 25.2632C95.9609 11.3684 84.4716 0 70.429 0Z" fill="white"/>
<path d="M70.429 2.04632C73.5822 2.04632 76.646 2.66526 79.5312 3.87789C82.3269 5.05263 84.829 6.73263 86.9992 8.86737C89.1567 11.0021 90.8546 13.4905 92.0418 16.2568C93.2673 19.1116 93.8929 22.1432 93.8929 25.2632C93.8929 28.3832 93.2673 31.4147 92.0418 34.2695C90.8546 37.0358 89.1567 39.5116 86.9992 41.6589C84.8418 43.7937 82.3269 45.4737 79.5312 46.6484C76.646 47.861 73.5822 48.48 70.429 48.48L25.4929 48.48C22.3397 48.48 19.2758 47.861 16.3907 46.6484C13.595 45.4737 11.0929 43.7937 8.92264 41.6589C6.76519 39.5242 5.06732 37.0358 3.88009 34.2695C2.65455 31.4147 2.02902 28.3832 2.02902 25.2632C2.02902 22.1432 2.65455 19.1116 3.88009 16.2568C5.06732 13.4905 6.76519 11.0147 8.92264 8.86737C11.0801 6.73263 13.595 5.05263 16.3907 3.87789C19.2758 2.66526 22.3397 2.04632 25.4929 2.04632L70.429 2.04632ZM70.429 0L25.4929 0C11.4503 0 -0.0390625 11.3684 -0.0390625 25.2632C-0.0390625 39.1579 11.4503 50.5263 25.4929 50.5263L70.429 50.5263C84.4716 50.5263 95.9609 39.1579 95.9609 25.2632C95.9609 11.3684 84.4716 0 70.429 0Z" fill="#3C4043"/>
<path d="M45.7401 27.0566V34.6987H43.2891V15.8271H49.7869C51.4337 15.8271 52.838 16.3703 53.9869 17.4566C55.1614 18.5429 55.7486 19.8693 55.7486 21.4356C55.7486 23.0398 55.1614 24.3661 53.9869 25.4398C52.8508 26.5135 51.4465 27.044 49.7869 27.044H45.7401V27.0566ZM45.7401 18.1514V24.7324H49.838C50.8082 24.7324 51.6252 24.404 52.2635 23.7598C52.9146 23.1156 53.2465 22.3324 53.2465 21.4482C53.2465 20.5766 52.9146 19.8061 52.2635 19.1619C51.6252 18.4924 50.821 18.164 49.838 18.164H45.7401V18.1514Z" fill="#3C4043"/>
<path d="M62.1565 21.3594C63.9693 21.3594 65.3991 21.8394 66.4459 22.7994C67.4927 23.7594 68.0161 25.0731 68.0161 26.7404V34.6983H65.6799V32.9046H65.5778C64.5693 34.3825 63.2161 35.1152 61.531 35.1152C60.0884 35.1152 58.8884 34.6983 57.9182 33.852C56.948 33.0057 56.4629 31.9573 56.4629 30.6941C56.4629 29.3552 56.9735 28.2941 57.9948 27.511C59.0161 26.7152 60.382 26.3236 62.0799 26.3236C63.5352 26.3236 64.7352 26.5888 65.6671 27.1194V26.5636C65.6671 25.7173 65.3352 25.0099 64.6586 24.4162C63.982 23.8225 63.1906 23.532 62.2842 23.532C60.9182 23.532 59.8331 24.1004 59.0416 25.2499L56.8842 23.911C58.0714 22.2057 59.8331 21.3594 62.1565 21.3594ZM58.9905 30.732C58.9905 31.3636 59.2586 31.8941 59.8076 32.311C60.3437 32.7278 60.982 32.9425 61.7097 32.9425C62.7437 32.9425 63.6629 32.5636 64.4671 31.8057C65.2714 31.0478 65.6799 30.1636 65.6799 29.1404C64.914 28.5467 63.8544 28.2436 62.4884 28.2436C61.4927 28.2436 60.6629 28.4836 59.9991 28.951C59.3225 29.4436 58.9905 30.0373 58.9905 30.732Z" fill="#3C4043"/>
<path d="M81.3437 21.7764L73.1735 40.3701H70.6458L73.6841 33.8648L68.2969 21.7764H70.965L74.8458 31.0479H74.8969L78.6756 21.7764H81.3437Z" fill="#3C4043"/>
<path d="M35.99 25.5152C35.99 24.7244 35.9185 23.9678 35.7858 23.2402H25.5117V27.4087L31.4287 27.4099C31.1887 28.7969 30.4164 29.9792 29.233 30.7674V33.4718H32.7551C34.8117 31.5884 35.99 28.8044 35.99 25.5152Z" fill="#4285F4"/>
<path d="M29.2358 30.7674C28.2554 31.4217 26.9928 31.8044 25.5158 31.8044C22.6626 31.8044 20.2422 29.9021 19.3754 27.3379H15.7422V30.1269C17.5422 33.6613 21.2418 36.0865 25.5158 36.0865C28.4698 36.0865 30.9516 35.1253 32.7579 33.4705L29.2358 30.7674Z" fill="#34A853"/>
<path d="M19.0322 25.2695C19.0322 24.5495 19.1534 23.8535 19.3743 23.1992V20.4102H15.7411C14.9968 21.8716 14.5781 23.5213 14.5781 25.2695C14.5781 27.0177 14.9981 28.6674 15.7411 30.1289L19.3743 27.3398C19.1534 26.6855 19.0322 25.9895 19.0322 25.2695Z" fill="#FABB05"/>
<path d="M25.5158 18.7323C27.1281 18.7323 28.572 19.2818 29.712 20.3555L32.8333 17.2696C30.9375 15.5226 28.466 14.4502 25.5158 14.4502C21.243 14.4502 17.5422 16.8755 15.7422 20.4098L19.3754 23.1988C20.2422 20.6346 22.6626 18.7323 25.5158 18.7323Z" fill="#E94235"/>
</g>
<defs>
<clipPath id="clip0_2_6843">
<rect width="96" height="50.5263" fill="white"/>
</clipPath>
</defs>
</svg>
