<svg width="56" height="43" viewBox="0 0 56 43" fill="none" xmlns="http://www.w3.org/2000/svg">
<path d="M55.7329 34.0656C55.7329 38.8063 51.8725 42.6667 47.1318 42.6667H0.333984V8.60111C0.333984 3.86039 4.19438 0 8.93509 0H55.7329V34.0656Z" fill="white"/>
<path d="M40.4941 25.3289H44.0496C44.1513 25.3289 44.3883 25.2952 44.49 25.2952C45.1673 25.1597 45.743 24.5501 45.743 23.7035C45.743 22.8909 45.1673 22.2813 44.49 22.1121C44.3883 22.0781 44.1853 22.0781 44.0498 22.0781H40.4944V25.3289H40.4941Z" fill="url(#paint0_linear_2_4175)"/>
<path d="M43.6441 2.87793C40.2579 2.87793 37.481 5.62104 37.481 9.04106V15.4411H46.1838C46.387 15.4411 46.624 15.4411 46.7932 15.4749C48.7573 15.5766 50.2135 16.5924 50.2135 18.353C50.2135 19.7415 49.2314 20.9267 47.4028 21.1639V21.2314C49.4007 21.3669 50.9246 22.4844 50.9246 24.2113C50.9246 26.0738 49.2314 27.2928 46.9964 27.2928H37.4473V39.8221H46.4885C49.8748 39.8221 52.6517 37.0792 52.6517 33.6589V2.87793H43.6441V2.87793Z" fill="#5CB531"/>
<path d="M45.3026 18.7597C45.3026 17.9469 44.727 17.405 44.0496 17.3033C43.9821 17.3033 43.8127 17.2695 43.7112 17.2695H40.4941V20.2494H43.7112C43.8129 20.2494 44.0159 20.2494 44.0498 20.2156C44.7272 20.1139 45.3028 19.5723 45.3028 18.7595L45.3026 18.7597Z" fill="url(#paint1_linear_2_4175)"/>
<path d="M9.57775 2.87793C6.19149 2.87793 3.41462 5.62104 3.41462 9.04106V24.2455C5.14172 25.0918 6.93634 25.6337 8.73118 25.6337C10.8645 25.6337 12.0157 24.3469 12.0157 22.5861V15.4072H17.2983V22.5521C17.2983 25.3288 15.5714 27.5977 9.71321 27.5977C6.15773 27.5977 3.38086 26.8187 3.38086 26.8187V39.7881H12.4221C15.8084 39.7881 18.5853 37.0452 18.5853 33.625V2.87836H9.57753L9.57775 2.87793Z" fill="#006FBC"/>
<path d="M26.6104 2.87793C23.2241 2.87793 20.4473 5.62104 20.4473 9.04106V17.1003C22.0051 15.7796 24.7141 14.933 29.0824 15.1362C31.4188 15.2379 33.9246 15.8813 33.9246 15.8813V18.4887C32.6716 17.8454 31.1819 17.2695 29.2516 17.1341C25.9331 16.8971 23.9352 18.5225 23.9352 21.3669C23.9352 24.2452 25.9331 25.8706 29.2516 25.5997C31.1819 25.4642 32.6718 24.8548 33.9246 24.2452V26.8527C33.9246 26.8527 31.4526 27.496 29.0824 27.5977C24.7141 27.8007 22.0051 26.9542 20.4475 25.6337V39.8558H29.4888C32.875 39.8558 35.6517 37.1129 35.6517 33.6927V2.87836H26.6104V2.87793Z" fill="#E60039"/>
<defs>
<linearGradient id="paint0_linear_2_4175" x1="37.4746" y1="23.7075" x2="52.6919" y2="23.7075" gradientUnits="userSpaceOnUse">
<stop stop-color="#007940"/>
<stop offset="0.2285" stop-color="#00873F"/>
<stop offset="0.7433" stop-color="#40A737"/>
<stop offset="1" stop-color="#5CB531"/>
</linearGradient>
<linearGradient id="paint1_linear_2_4175" x1="37.4742" y1="18.7552" x2="52.6923" y2="18.7552" gradientUnits="userSpaceOnUse">
<stop stop-color="#007940"/>
<stop offset="0.2285" stop-color="#00873F"/>
<stop offset="0.7433" stop-color="#40A737"/>
<stop offset="1" stop-color="#5CB531"/>
</linearGradient>
</defs>
</svg>
