<svg width="96" height="58" viewBox="0 0 96 58" fill="none" xmlns="http://www.w3.org/2000/svg">
<path d="M67.2 57.6C83.1058 57.6 96 44.7058 96 28.8C96 12.8942 83.1058 0 67.2 0C59.8238 0 53.0953 2.77299 48 7.33337C53.892 12.6068 57.6 20.2704 57.6 28.8C57.6 37.3296 53.892 44.9931 48 50.2666C53.0953 54.827 59.8238 57.6 67.2 57.6Z" fill="#F79E1B"/>
<path d="M48.0004 50.2672C53.8924 44.9938 57.6004 37.3302 57.6004 28.8006C57.6004 20.271 53.8924 12.6075 48.0004 7.33398C42.1084 12.6075 38.4004 20.271 38.4004 28.8006C38.4004 37.3302 42.1084 44.9938 48.0004 50.2672Z" fill="#FF5F00"/>
<path d="M28.8 0C12.8942 0 0 12.8942 0 28.8C0 44.7058 12.8942 57.6 28.8 57.6C36.1762 57.6 42.9047 54.827 48 50.2666C42.108 44.9931 38.4 37.3296 38.4 28.8C38.4 20.2704 42.108 12.6069 48 7.33338C42.9047 2.773 36.1762 0 28.8 0Z" fill="#EB001B"/>
</svg>
