<svg width="96" height="60" viewBox="0 0 96 60" fill="none" xmlns="http://www.w3.org/2000/svg">
<path d="M60.9793 52.9934H35.0215V6.34277L60.9797 6.34277L60.9793 52.9934Z" fill="#6C6BBD"/>
<path d="M36.6686 29.6685C36.6686 20.2054 41.0992 11.7757 47.9992 6.34349C42.9536 2.37112 36.585 0 29.6647 0C13.281 0 0 13.2829 0 29.6685C0 46.0544 13.281 59.3373 29.6647 59.3373C36.5853 59.3373 42.9536 56.9662 47.9992 52.9938C41.0992 47.5616 36.6686 39.132 36.6686 29.6688" fill="#D32011"/>
<path d="M95.9991 29.6685C95.9991 46.0544 82.7181 59.3373 66.3344 59.3373C59.4138 59.3373 53.0455 56.9662 47.998 52.9938C54.8999 47.5616 59.3305 39.132 59.3305 29.6688C59.3305 20.2054 54.8999 11.7757 47.998 6.34349C53.0455 2.37112 59.4142 0 66.3344 0C82.7181 0 95.9991 13.2829 95.9991 29.6685Z" fill="#0099DF"/>
</svg>
