<svg width="96" height="32" viewBox="0 0 96 32" fill="none" xmlns="http://www.w3.org/2000/svg">
<path fill-rule="evenodd" clip-rule="evenodd" d="M36.5245 0.112643L23.9085 30.836H15.6855L9.49017 6.75858C9.45428 6.17106 9.26681 5.60286 8.94602 5.10935C8.62523 4.61583 8.18207 4.21382 7.65972 3.9425C5.23618 2.68291 2.66229 1.73662 0 1.12643L0.168965 0L13.3764 0C14.2576 0.0490135 15.0949 0.400898 15.7466 0.996136C16.3982 1.59137 16.8243 2.39343 16.9528 3.26665L20.2194 20.5292L28.3016 0L36.5245 0.112643ZM68.6277 20.7545C68.6277 12.8413 57.6732 12.3062 57.7577 8.87064C57.7577 7.80053 58.7996 6.64594 61.0525 6.36433C63.6809 6.11618 66.3275 6.58322 68.7122 7.71604L70.0639 1.35172C67.7401 0.482079 65.2797 0.0338767 62.7985 0.0281607C55.1387 0.0281607 49.7319 4.11147 49.6756 9.94074C49.6756 14.2493 53.5336 16.6712 56.4623 18.1074C59.391 19.5436 60.4893 20.5292 60.4893 21.8246C60.4893 23.8522 58.0675 24.6407 55.8428 24.6407C53.0527 24.7605 50.2788 24.1591 47.7888 22.8947L46.3808 29.4843C49.136 30.5582 52.069 31.1028 55.0261 31.0895C63.1927 31.0895 68.5151 27.0625 68.5433 20.8108L68.6277 20.7545ZM88.819 30.8923H96L89.8046 0.112643L83.1869 0.112643C82.4508 0.182128 81.7498 0.460144 81.1662 0.914059C80.5826 1.36797 80.1406 1.97895 79.892 2.67527L68.2335 30.836H76.372L78.0053 25.7108H87.9742L88.819 30.8923ZM80.23 19.3183L84.3133 8.05397L86.6788 19.3183H80.23ZM47.5635 0.112643L41.1429 30.836H33.3705L39.8193 0.112643L47.5635 0.112643Z" fill="#1A1F71"/>
</svg>
